<svg xmlns="http://www.w3.org/2000/svg" viewBox="0 0 1200 900" width="1200" height="900"><defs><linearGradient id="bg" x1="0" y1="0" x2="1" y2="1"><stop offset="0" stop-color="#2e1f75"/><stop offset="1" stop-color="#0f0b26"/></linearGradient>
<radialGradient id="glow"><stop offset="0" stop-color="#a78bfa" stop-opacity=".5"/><stop offset="1" stop-color="#a78bfa" stop-opacity="0"/></radialGradient>
<linearGradient id="bar" x1="0" y1="0" x2="0" y2="1"><stop offset="0" stop-color="#8b5cf6"/><stop offset="1" stop-color="#c4b5fd"/></linearGradient></defs>
<rect width="1200" height="900" fill="url(#bg)"/>
<circle cx="200" cy="120" r="380" fill="url(#glow)"/>
<rect x="90" y="110" width="1020" height="680" rx="28" fill="#f8f7ff"/>
<rect x="90" y="110" width="220" height="680" rx="28" fill="#1c1640"/><rect x="282" y="110" width="28" height="680" fill="#1c1640"/>
<circle cx="140" cy="170" r="20" fill="#8b5cf6"/><text x="172" y="178" font-family="Arial, sans-serif" font-size="24" font-weight="700" fill="#fff">Insight</text>
<g font-family="Arial, sans-serif" font-size="19" fill="#a8a3d1"><rect x="114" y="230" width="172" height="44" rx="12" fill="#2d2466"/><text x="138" y="259" fill="#fff">Overview</text><text x="138" y="320">Revenue</text><text x="138" y="370">Customers</text><text x="138" y="420">Reports</text><text x="138" y="470">Data sources</text></g>
<text x="350" y="180" font-family="Arial, sans-serif" font-size="30" font-weight="700" fill="#1c1640">Operations overview</text>
<g font-family="Arial, sans-serif">
<rect x="350" y="210" width="230" height="110" rx="18" fill="#fff" stroke="#e7e4f7"/><text x="374" y="248" font-size="18" fill="#7c76a8">Active users</text><text x="374" y="296" font-size="36" font-weight="700" fill="#1c1640">82,410</text>
<rect x="600" y="210" width="230" height="110" rx="18" fill="#fff" stroke="#e7e4f7"/><text x="624" y="248" font-size="18" fill="#7c76a8">Conversion</text><text x="624" y="296" font-size="36" font-weight="700" fill="#1c1640">6.4%</text>
<rect x="850" y="210" width="230" height="110" rx="18" fill="#fff" stroke="#e7e4f7"/><text x="874" y="248" font-size="18" fill="#7c76a8">Growth</text><text x="874" y="296" font-size="36" font-weight="700" fill="#16a34a">+18%</text>
</g>
<g transform="translate(180 0)"><rect x="170" y="345" width="490" height="415" rx="18" fill="#fff" stroke="#e7e4f7"/></g>
<g transform="translate(200 50)"><rect x="180" y="520" width="34" height="120" rx="8" fill="url(#bar)"/><rect x="238" y="460" width="34" height="180" rx="8" fill="url(#bar)"/><rect x="296" y="490" width="34" height="150" rx="8" fill="url(#bar)"/><rect x="354" y="400" width="34" height="240" rx="8" fill="url(#bar)"/><rect x="412" y="430" width="34" height="210" rx="8" fill="url(#bar)"/><rect x="470" y="350" width="34" height="290" rx="8" fill="url(#bar)"/><rect x="528" y="380" width="34" height="260" rx="8" fill="url(#bar)"/><rect x="586" y="310" width="34" height="330" rx="8" fill="url(#bar)"/></g>
<line x1="380" y1="690" x2="820" y2="690" stroke="#e7e4f7" stroke-width="2"/>
<rect x="870" y="345" width="210" height="415" rx="18" fill="#fff" stroke="#e7e4f7"/>
<circle cx="975" cy="490" r="70" fill="none" stroke="#ede9fe" stroke-width="28"/>
<circle cx="975" cy="490" r="70" fill="none" stroke="#8b5cf6" stroke-width="28" stroke-dasharray="290 440" transform="rotate(-90 975 490)"/>
<circle cx="975" cy="490" r="70" fill="none" stroke="#ff5e15" stroke-width="28" stroke-dasharray="90 440" stroke-dashoffset="-290" transform="rotate(-90 975 490)"/>
<g font-family="Arial, sans-serif" font-size="18" fill="#7c76a8"><circle cx="905" cy="618" r="8" fill="#8b5cf6"/><text x="922" y="624">Online 66%</text><circle cx="905" cy="658" r="8" fill="#ff5e15"/><text x="922" y="664">Retail 20%</text><circle cx="905" cy="698" r="8" fill="#ede9fe"/><text x="922" y="704">Other 14%</text></g>
</svg>
